<svg xmlns="http://www.w3.org/2000/svg" width="512" height="512" viewBox="0 0 512 512">
  <defs>
    <linearGradient id="bg" x1="0" y1="0" x2="1" y2="1">
      <stop offset="0%" stop-color="#ffd1e8"/>
      <stop offset="55%" stop-color="#f5b3e5"/>
      <stop offset="100%" stop-color="#cfa8ff"/>
    </linearGradient>
    <linearGradient id="num" x1="0" y1="0" x2="1" y2="1">
      <stop offset="0%" stop-color="#ff6ab3"/>
      <stop offset="100%" stop-color="#a855f7"/>
    </linearGradient>
  </defs>
  <rect width="512" height="512" fill="url(#bg)"/>
  <circle cx="256" cy="220" r="150" fill="#ffffff" fill-opacity="0.35"/>
  <text x="256" y="380" text-anchor="middle" font-size="220" font-family="Arial, sans-serif" font-weight="900" fill="url(#num)">12</text>
  <circle cx="256" cy="170" r="54" fill="#f6d2b5"/>
  <path d="M202 165c14-46 93-47 108 1-8-16-25-24-54-24-26 0-44 8-54 23z" fill="#6b3a26"/>
  <path d="M214 226h84l22 70h-128z" fill="#f06292"/>
  <circle cx="238" cy="168" r="4" fill="#3f2c2c"/>
  <circle cx="274" cy="168" r="4" fill="#3f2c2c"/>
  <path d="M239 188c7 8 27 8 34 0" stroke="#9d5a59" stroke-width="4" fill="none" stroke-linecap="round"/>
</svg>
